<?xml version="1.0" encoding="UTF-8"?>
<svg clip-rule="evenodd" fill-rule="evenodd" stroke-linejoin="round" stroke-miterlimit="2" version="1.1" viewBox="0 0 108 108" xml:space="preserve" xmlns="http://www.w3.org/2000/svg" xmlns:cc="http://creativecommons.org/ns#" xmlns:dc="http://purl.org/dc/elements/1.1/" xmlns:rdf="http://www.w3.org/1999/02/22-rdf-syntax-ns#">
	<title>
		FlorisBoard App Icon v4
	</title>
	<g display="none">
		<g display="none">
			<rect x="-9.2181e-9" y="-7.1025e-7" width="108" height="108" clip-rule="evenodd" display="inline" fill="#3d3e42" fill-rule="evenodd" stroke-miterlimit="2" stroke-width="0" />
		</g>
		<g display="none">
			<circle cx="54" cy="54" r="33" clip-rule="evenodd" display="inline" fill="#3d3e42" fill-rule="evenodd" stroke-miterlimit="2" stroke-width="0" />
		</g>
		<g display="none">
			<rect x="18" y="18" width="72" height="72" rx="12" ry="12" clip-rule="evenodd" display="inline" fill="#3d3e42" fill-rule="evenodd" stroke-miterlimit="2" stroke-width="0" />
		</g>
	</g>
	<rect id="FlorisBoard" width="108" height="108" fill="none" />
	<defs>
		<radialGradient id="Radial1_Orange" cx="0" cy="0" r="1" gradientTransform="matrix(20.594 0 0 20.594 54.142 48.769)" gradientUnits="userSpaceOnUse">
			<stop stop-color="#febe01" offset="0" />
			<stop stop-color="#fe7901" offset="1" />
		</radialGradient>
		<radialGradient id="Radial3_Orange" cx="0" cy="0" r="1" gradientTransform="matrix(7.8676e-16 -12.849 12.849 7.8676e-16 54.03 39.144)" gradientUnits="userSpaceOnUse">
			<stop stop-color="#fe7901" offset="0" />
			<stop stop-color="#febe01" offset="1" />
		</radialGradient>
		<radialGradient id="Radial5_Orange" cx="0" cy="0" r="1" gradientTransform="matrix(17.913 0 0 17.913 54.131 49.819)" gradientUnits="userSpaceOnUse">
			<stop stop-color="#fe7901" offset="0" />
			<stop stop-color="#febe01" offset="1" />
		</radialGradient>
		<radialGradient id="Radial1_Green" cx="0" cy="0" r="1" gradientTransform="matrix(20.594 0 0 20.594 54.142 48.769)" gradientUnits="userSpaceOnUse">
			<stop stop-color="#55e032" offset="0" />
			<stop stop-color="#227c53" offset="1" />
		</radialGradient>
		<radialGradient id="Radial3_Green" cx="0" cy="0" r="1" gradientTransform="matrix(.10122 -15.893 15.893 .10122 54.03 39.144)" gradientUnits="userSpaceOnUse">
			<stop stop-color="#22a86a" offset="0" />
			<stop stop-color="#2fb65c" offset=".5" />
			<stop stop-color="#55e032" offset="1" />
		</radialGradient>
		<radialGradient id="Radial5_Green" cx="0" cy="0" r="1" gradientTransform="matrix(20.605 -13.882 13.882 20.605 54.131 49.819)" gradientUnits="userSpaceOnUse">
			<stop stop-color="#22a86a" offset="0" />
			<stop stop-color="#2fb65c" offset=".5" />
			<stop stop-color="#55e032" offset="1" />
		</radialGradient>
	</defs>
	<g clip-rule="evenodd" fill-rule="evenodd" stroke-linejoin="round" stroke-miterlimit="2">
		<g>
			<path d="m34.982 42.807 0.19809 0.0028c9.1261 0.11718 16.499 7.5637 16.499 16.719v2.9658c-1.129-0.23994-2.2385-0.57195-3.3136-0.99417-6.656-2.6114-11.672-8.6174-13.023-15.642-0.19437-1.0072-0.31434-2.0274-0.36084-3.0513z" fill="url(#Radial1_Green)" />
			<path d="m48.272 42.534c0.66216-3.5907 2.3799-7.0243 5.155-9.7994 0.22692-0.22692 0.45849-0.44733 0.69471-0.66123 0.23622 0.2139 0.46779 0.43431 0.69564 0.66123 2.7705 2.7714 4.4882 6.1994 5.1513 9.7845-2.4152 1.8944-4.4184 4.292-5.8497 7.0345-1.4303-2.724-3.4373-5.1224-5.8469-7.0196z" fill="url(#Radial1_Green)" />
			<path d="m44.77 40.282c0.97278-3.7786 2.9369-7.3535 5.8943-10.311 0.8184-0.8184 1.6842-1.5605 2.5891-2.2274l0.86862-0.63984 0.86955 0.63984c0.90489 0.66681 1.7707 1.409 2.5891 2.2274 2.9555 2.9555 4.9197 6.5295 5.8934 10.306-0.91884 0.46965-1.8005 1.0035-2.6366 1.595-0.75795-3.6028-2.5342-7.0336-5.3289-9.8282-0.34596-0.34689-0.70215-0.67704-1.0676-0.99231l-0.31899-0.27528-0.31899 0.27528c-0.36456 0.31527-0.72075 0.64542-1.0667 0.99231-2.7984 2.7984-4.5756 6.2329-5.3317 9.8403-0.83793-0.59427-1.7177-1.1309-2.6347-1.6024z" fill="url(#Radial3_Orange)" />
			<path d="m73.262 42.807-0.19809 0.0028c-9.127 0.11718-16.5 7.5637-16.5 16.719v2.9667c9.2405-1.9595 16.258-9.9724 16.698-19.688z" fill="url(#Radial1_Green)" />
			<path d="m35.163 38.902 0.06789 9.3e-4c2.0553 0.02604 4.1022 0.35898 6.0599 0.98859 5.4526 1.7558 9.9817 5.8181 12.388 10.97l0.44361 0.95046 0.44175-0.95139c3.241-6.9824 10.276-11.854 18.45-11.958l0.06789-9.3e-4c0.13299 0.95697 0.20181 1.9344 0.20274 2.9276l-0.23343 0.0028c-9.6599 0.12462-17.464 8.0064-17.464 17.696v3.1536c-0.47802 0.07068-0.93279 0.08649-1.4043 0.08835h-0.06138c-0.48732 0-0.97836-0.03255-1.4648-0.09951v-3.1425c0-9.6897-7.8046-17.571-17.464-17.696l-0.2325-0.0028c0-0.97929 0.06789-1.9586 0.20274-2.9276z" fill="url(#Radial5_Orange)" />
		</g>
		<g display="none">
			<path d="m34.982 42.807 0.19809 0.0028c9.1261 0.11718 16.499 7.5637 16.499 16.719v2.9658c-1.129-0.23994-2.2385-0.57195-3.3136-0.99417-6.656-2.6114-11.672-8.6174-13.023-15.642-0.19437-1.0072-0.31434-2.0274-0.36084-3.0513z" display="inline" fill="url(#Radial1_Green)" />
			<path d="m48.272 42.534c0.66216-3.5907 2.3799-7.0243 5.155-9.7994 0.22692-0.22692 0.45849-0.44733 0.69471-0.66123 0.23622 0.2139 0.46779 0.43431 0.69564 0.66123 2.7705 2.7714 4.4882 6.1994 5.1513 9.7845-2.4152 1.8944-4.4184 4.292-5.8497 7.0345-1.4303-2.724-3.4373-5.1224-5.8469-7.0196z" display="inline" fill="url(#Radial1_Green)" />
			<path d="m44.77 40.282c0.97278-3.7786 2.9369-7.3535 5.8943-10.311 0.8184-0.8184 1.6842-1.5605 2.5891-2.2274l0.86862-0.63984 0.86955 0.63984c0.90489 0.66681 1.7707 1.409 2.5891 2.2274 2.9555 2.9555 4.9197 6.5295 5.8934 10.306-0.91884 0.46965-1.8005 1.0035-2.6366 1.595-0.75795-3.6028-2.5342-7.0336-5.3289-9.8282-0.34596-0.34689-0.70215-0.67704-1.0676-0.99231l-0.31899-0.27528-0.31899 0.27528c-0.36456 0.31527-0.72075 0.64542-1.0667 0.99231-2.7984 2.7984-4.5756 6.2329-5.3317 9.8403-0.83793-0.59427-1.7177-1.1309-2.6347-1.6024z" display="inline" fill="url(#Radial3_Green)" />
			<path d="m73.262 42.807-0.19809 0.0028c-9.127 0.11718-16.5 7.5637-16.5 16.719v2.9667c9.2405-1.9595 16.258-9.9724 16.698-19.688z" display="inline" fill="url(#Radial1_Green)" />
			<path d="m35.163 38.902 0.06789 9.3e-4c2.0553 0.02604 4.1022 0.35898 6.0599 0.98859 5.4526 1.7558 9.9817 5.8181 12.388 10.97l0.44361 0.95046 0.44175-0.95139c3.241-6.9824 10.276-11.854 18.45-11.958l0.06789-9.3e-4c0.13299 0.95697 0.20181 1.9344 0.20274 2.9276l-0.23343 0.0028c-9.6599 0.12462-17.464 8.0064-17.464 17.696v3.1536c-0.47802 0.07068-0.93279 0.08649-1.4043 0.08835h-0.06138c-0.48732 0-0.97836-0.03255-1.4648-0.09951v-3.1425c0-9.6897-7.8046-17.571-17.464-17.696l-0.2325-0.0028c0-0.97929 0.06789-1.9586 0.20274-2.9276z" display="inline" fill="url(#Radial5_Green)" />
		</g>
		<g display="none">
			<path d="m34.982 42.807 0.19809 0.0028c9.1261 0.11718 16.499 7.5637 16.499 16.719v2.9658c-1.129-0.23994-2.2385-0.57195-3.3136-0.99417-6.656-2.6114-11.672-8.6174-13.023-15.642-0.19437-1.0072-0.31434-2.0274-0.36084-3.0513z" display="inline" fill="url(#Radial1_Orange)" />
			<path d="m48.272 42.534c0.66216-3.5907 2.3799-7.0243 5.155-9.7994 0.22692-0.22692 0.45849-0.44733 0.69471-0.66123 0.23622 0.2139 0.46779 0.43431 0.69564 0.66123 2.7705 2.7714 4.4882 6.1994 5.1513 9.7845-2.4152 1.8944-4.4184 4.292-5.8497 7.0345-1.4303-2.724-3.4373-5.1224-5.8469-7.0196z" display="inline" fill="url(#Radial1_Orange)" />
			<path d="m44.77 40.282c0.97278-3.7786 2.9369-7.3535 5.8943-10.311 0.8184-0.8184 1.6842-1.5605 2.5891-2.2274l0.86862-0.63984 0.86955 0.63984c0.90489 0.66681 1.7707 1.409 2.5891 2.2274 2.9555 2.9555 4.9197 6.5295 5.8934 10.306-0.91884 0.46965-1.8005 1.0035-2.6366 1.595-0.75795-3.6028-2.5342-7.0336-5.3289-9.8282-0.34596-0.34689-0.70215-0.67704-1.0676-0.99231l-0.31899-0.27528-0.31899 0.27528c-0.36456 0.31527-0.72075 0.64542-1.0667 0.99231-2.7984 2.7984-4.5756 6.2329-5.3317 9.8403-0.83793-0.59427-1.7177-1.1309-2.6347-1.6024z" display="inline" fill="url(#Radial3_Orange)" />
			<path d="m73.262 42.807-0.19809 0.0028c-9.127 0.11718-16.5 7.5637-16.5 16.719v2.9667c9.2405-1.9595 16.258-9.9724 16.698-19.688z" display="inline" fill="url(#Radial1_Orange)" />
			<path d="m35.163 38.902 0.06789 9.3e-4c2.0553 0.02604 4.1022 0.35898 6.0599 0.98859 5.4526 1.7558 9.9817 5.8181 12.388 10.97l0.44361 0.95046 0.44175-0.95139c3.241-6.9824 10.276-11.854 18.45-11.958l0.06789-9.3e-4c0.13299 0.95697 0.20181 1.9344 0.20274 2.9276l-0.23343 0.0028c-9.6599 0.12462-17.464 8.0064-17.464 17.696v3.1536c-0.47802 0.07068-0.93279 0.08649-1.4043 0.08835h-0.06138c-0.48732 0-0.97836-0.03255-1.4648-0.09951v-3.1425c0-9.6897-7.8046-17.571-17.464-17.696l-0.2325-0.0028c0-0.97929 0.06789-1.9586 0.20274-2.9276z" display="inline" fill="url(#Radial5_Orange)" />
		</g>
		<g>
			<path d="m75.876 72.572c0-1.1234-0.9114-2.0348-2.0339-2.0348h-5.5958c-1.1225 0-2.0339 0.9114-2.0339 2.0348v1.7428c0 1.1225 0.9114 2.0339 2.0339 2.0339h5.5958c1.1225 0 2.0339-0.9114 2.0339-2.0339z" fill="#53cd53" />
			<g fill="#fff">
				<path d="m65.226 65.779c0-1.1225-0.9114-2.0339-2.0339-2.0339h-2.7798c-1.1225 0-2.0339 0.9114-2.0339 2.0339v1.7438c0 1.1225 0.9114 2.0339 2.0339 2.0339h2.7798c1.1225 0 2.0339-0.9114 2.0339-2.0339z" />
				<path d="m57.397 65.779c0-1.1225-0.9114-2.0339-2.0339-2.0339h-2.7788c-1.1225 0-2.0339 0.9114-2.0339 2.0339v1.7438c0 1.1225 0.9114 2.0339 2.0339 2.0339h2.7788c1.1225 0 2.0339-0.9114 2.0339-2.0339z" />
				<path d="m41.742 65.779c0-1.1225-0.9114-2.0339-2.0339-2.0339h-2.7798c-1.1225 0-2.0339 0.9114-2.0339 2.0339v1.7438c0 1.1225 0.9114 2.0339 2.0339 2.0339h2.7798c1.1225 0 2.0339-0.9114 2.0339-2.0339z" />
				<path d="m73.054 65.779c0-1.1225-0.9114-2.0339-2.0339-2.0339h-2.7788c-1.1234 0-2.0348 0.9114-2.0348 2.0339v1.7438c0 1.1225 0.9114 2.0339 2.0348 2.0339h2.7788c1.1225 0 2.0339-0.9114 2.0339-2.0339z" />
				<path d="m38.97 58.987c0-1.1234-0.9114-2.0348-2.0339-2.0348h-2.7788c-1.1225 0-2.0339 0.9114-2.0339 2.0348v1.7428c0 1.1225 0.9114 2.0339 2.0339 2.0339h2.7788c1.1225 0 2.0339-0.9114 2.0339-2.0339z" />
				<path d="m75.876 58.987c0-1.1234-0.9114-2.0348-2.0339-2.0348h-2.7788c-1.1225 0-2.0339 0.9114-2.0339 2.0348v1.7428c0 1.1225 0.9114 2.0339 2.0339 2.0339h2.7788c1.1225 0 2.0339-0.9114 2.0339-2.0339z" />
				<path d="m49.569 65.779c0-1.1225-0.9114-2.0339-2.0339-2.0339h-2.7788c-1.1234 0-2.0348 0.9114-2.0348 2.0339v1.7438c0 1.1225 0.9114 2.0339 2.0348 2.0339h2.7788c1.1225 0 2.0339-0.9114 2.0339-2.0339z" />
			</g>
			<path d="m41.787 72.572c0-1.1234-0.9114-2.0348-2.0339-2.0348h-5.5958c-1.1225 0-2.0339 0.9114-2.0339 2.0348v1.7428c0 1.1225 0.9114 2.0339 2.0339 2.0339h5.5958c1.1225 0 2.0339-0.9114 2.0339-2.0339z" fill="#fe9801" />
			<g fill="#fff">
				<path d="m67.568 57.673c0.29946 0.35433 0.48081 0.81282 0.48081 1.3141v1.7428c0 1.1225-0.9114 2.0339-2.0339 2.0339h-2.7798c-0.70959 0-1.3346-0.36363-1.6982-0.91512 2.2404-1.0518 4.2761-2.4692 6.031-4.1757z" />
				<path d="m40.562 57.535c1.7307 1.7168 3.7423 3.1546 5.9585 4.2241-0.3534 0.60171-1.0081 1.0053-1.7549 1.0053h-2.7798c-1.1225 0-2.0339-0.9114-2.0339-2.0339v-1.7428c0-0.56916 0.23343-1.0834 0.61008-1.4527z" />
				<path d="m35.768 50.524c0.85188 1.9707 1.9883 3.8065 3.3592 5.4489h-2.1994c-1.1225 0-2.0339-0.9114-2.0339-2.0339v-1.7438c0-0.69192 0.34596-1.3029 0.8742-1.6712z" />
				<path d="m72.407 50.707c0.39804 0.37107 0.64728 0.90117 0.64728 1.488v1.7438c0 1.1225-0.9114 2.0339-2.0339 2.0339h-1.8767c1.3206-1.5829 2.4226-3.3536 3.2634-5.2657z" />
				<path d="m65.3 72.619c0-1.1086-0.89931-2.0088-2.0079-2.0088h-18.531c-1.1086 0-2.0088 0.90024-2.0088 2.0088v1.7214c0 1.1086 0.90024 2.0079 2.0088 2.0079h18.531c1.1086 0 2.0079-0.89931 2.0079-2.0079z" />
			</g>
		</g>
	</g>
	<g clip-rule="evenodd" display="none" fill="none" stroke="#ff0101" stroke-linecap="round" stroke-linejoin="round" stroke-miterlimit="2" stroke-width=".5">
		<rect x="18" y="18" width="72" height="72" rx="12" />
		<circle cx="54.25" cy="54.25" r="33" />
		<rect x=".25" y=".25" width="108" height="108" display="inline" />
	</g>
	<metadata>
		<RDF>
			<Work rdf:about="">
				<title>
					FlorisBoard App Icon v4
				</title>
				<date>
					2022-04-10
				</date>
				<creator>
					<Agent>
						<title>
							Nikolay Anzarov, Patrick Goldinger
						</title>
					</Agent>
				</creator>
			</Work>
		</RDF>
	</metadata>
</svg>
